<?xml version="1.0" encoding="UTF-8"?>
<svg width="88px" height="88px" viewBox="0 0 88 88" version="1.1" xmlns="http://www.w3.org/2000/svg" xmlns:xlink="http://www.w3.org/1999/xlink">
    <!-- Generator: Sketch 52.4 (67378) - http://www.bohemiancoding.com/sketch -->
    <title>Useful</title>
    <desc>Created with Sketch.</desc>
    <g id="Useful" stroke="none" stroke-width="1" fill="none" fill-rule="evenodd">
        <g id="Bend" transform="translate(9.000000, 9.000000)" fill-rule="nonzero">
            <rect id="矩形" x="0" y="0" width="70" height="70"></rect>
            <path d="M3.80783076,34.610735 C9.72987562,34.610735 14.758437,34.610735 18.8935149,34.610735 C25.0961317,34.610735 26.9738172,57.6464919 35.4829982,57.6464919 C43.9921791,57.6464919 43.7393299,34.610735 52.8762962,34.610735 C58.967607,34.610735 63.7282302,34.610735 67.1581656,34.610735" id="路径-3" stroke="#FFFFFF" stroke-width="4" stroke-linecap="round"></path>
            <path d="M3.63728895,21.4772727 C7.09941473,21.4772727 12.1279761,21.4772727 18.7229731,21.4772727 C28.6154685,21.4772727 29.6059617,43.6443659 35.7143637,43.6443659 C41.8227657,43.6443659 41.3666262,21.4772727 52.7057544,21.4772727 C60.2651731,21.4772727 65.0257962,21.4772727 66.9876238,21.4772727" id="路径-3" stroke="#FFFFFF" stroke-width="4" stroke-linecap="round"></path>
        </g>
    </g>
</svg>