<?xml version="1.0" encoding="UTF-8"?>
<svg width="88px" height="88px" viewBox="0 0 88 88" version="1.1" xmlns="http://www.w3.org/2000/svg" xmlns:xlink="http://www.w3.org/1999/xlink">
    <!-- Generator: Sketch 52.4 (67378) - http://www.bohemiancoding.com/sketch -->
    <title>Useful</title>
    <desc>Created with Sketch.</desc>
    <g id="Useful" stroke="none" stroke-width="1" fill="none" fill-rule="evenodd">
        <g id="Bump_Collide" transform="translate(8.000000, 8.000000)" fill-rule="nonzero">
            <rect id="矩形" x="0" y="0" width="72" height="72"></rect>
            <path d="M6.75,24.75 C14.4051436,24.75 20.015097,24.75 23.5798602,24.75 C28.9270049,24.75 30.4216868,42.0509373 36.3409363,42.0509373 C42.2601857,42.0509373 41.5490888,24.75 47.2209192,24.75 C51.0021395,24.75 57.2391239,24.75 65.9318725,24.75" id="路径-4-copy" stroke="#FFFFFF" stroke-width="4" stroke-linecap="round"></path>
            <path d="M6.75,33.75 C14.4051436,33.75 20.015097,33.75 23.5798602,33.75 C28.9270049,33.75 30.4216868,51.0509373 36.3409363,51.0509373 C42.2601857,51.0509373 41.5490888,33.75 47.2209192,33.75 C51.0021395,33.75 57.2391239,33.75 65.9318725,33.75" id="路径-4-copy-2" stroke="#FFFFFF" stroke-width="4" stroke-linecap="round" transform="translate(36.340936, 42.400469) scale(1, -1) translate(-36.340936, -42.400469) "></path>
        </g>
    </g>
</svg>