<?xml version="1.0" encoding="UTF-8"?>
<svg width="84px" height="56px" viewBox="0 0 84 56" version="1.1" xmlns="http://www.w3.org/2000/svg" xmlns:xlink="http://www.w3.org/1999/xlink">
    <!-- Generator: Sketch 52.4 (67378) - http://www.bohemiancoding.com/sketch -->
    <title>Bump</title>
    <desc>Created with Sketch.</desc>
    <g id="Page-1" stroke="none" stroke-width="1" fill="none" fill-rule="evenodd">
        <g id="Bump" transform="translate(-2.000000, -15.000000)" fill-rule="nonzero">
            <rect id="矩形" x="0" y="0" width="88" height="88"></rect>
            <g id="分组-22-copy" transform="translate(4.000000, 17.000000)" stroke="#FFFFFF" stroke-linecap="round" stroke-width="4">
                <path d="M0,42.6793263 C5.30650985,42.6793263 5.51680878,28 15.6949082,28 C25.8730077,28 31.3458804,52 40.6651791,52 C49.9844777,52 53.3075467,28 61.9721953,28 C70.6368439,28 73.1764666,42.6793263 80,42.6793263" id="路径-3"></path>
                <path d="M0,31.3495397 C5.30650985,31.3495397 5.51680878,0 15.6949082,3.91337127e-14 C25.8730077,7.82674254e-14 31.3458804,46 40.6651791,46 C49.9844777,46 53.3075467,0 61.9721953,0 C70.6368439,0 73.1764666,31.3495397 80,31.3495397" id="路径-3" transform="translate(40.000000, 23.000000) scale(1, -1) translate(-40.000000, -23.000000) "></path>
            </g>
        </g>
    </g>
</svg>