<?xml version="1.0" encoding="UTF-8"?>
<svg width="88px" height="88px" viewBox="0 0 88 88" version="1.1" xmlns="http://www.w3.org/2000/svg" xmlns:xlink="http://www.w3.org/1999/xlink">
    <!-- Generator: Sketch 52.4 (67378) - http://www.bohemiancoding.com/sketch -->
    <title>Useful Copy 8</title>
    <desc>Created with Sketch.</desc>
    <g id="Useful-Copy-8" stroke="none" stroke-width="1" fill="none" fill-rule="evenodd">
        <path d="M41.4789138,41.4798608 L41.4789138,22.7808077 C41.4789138,21.2615017 42.7105547,20.0298608 44.2298608,20.0298608 C45.7491668,20.0298608 46.9808077,21.2615017 46.9808077,22.7808077 L46.9808077,41.4798608 L65.6881941,41.4798608 C67.2069772,41.4798608 68.4381941,42.7110777 68.4381941,44.2298608 C68.4381941,45.7486438 67.2069772,46.9798608 65.6881941,46.9798608 L46.9808077,46.9798608 L46.9808077,65.6789138 C46.9808077,67.1982199 45.7491668,68.4298608 44.2298608,68.4298608 C42.7105547,68.4298608 41.4789138,67.1982199 41.4789138,65.6789138 L41.4789138,46.9798608 L22.7715274,46.9798608 C21.2527444,46.9798608 20.0215274,45.7486438 20.0215274,44.2298608 C20.0215274,42.7110777 21.2527444,41.4798608 22.7715274,41.4798608 L41.4789138,41.4798608 Z" id="合并形状" fill="#32394F" fill-rule="nonzero" transform="translate(44.229861, 44.229861) rotate(45.000000) translate(-44.229861, -44.229861) "></path>
    </g>
</svg>