<?xml version="1.0" encoding="UTF-8"?>
<svg width="49px" height="49px" viewBox="0 0 49 49" version="1.1" xmlns="http://www.w3.org/2000/svg" xmlns:xlink="http://www.w3.org/1999/xlink">
    <!-- Generator: Sketch 52.4 (67378) - http://www.bohemiancoding.com/sketch -->
    <title>PieMenu_Expand</title>
    <desc>Created with Sketch.</desc>
    <g id="Page-1" stroke="none" stroke-width="1" fill="none" fill-rule="evenodd">
        <path d="M21.4573864,21.45 L21.4573864,2.75094697 C21.4573864,1.23164091 22.6890273,-3.90891535e-13 24.2083333,-3.90798505e-13 C25.7276394,-3.90705474e-13 26.9592803,1.23164091 26.9592803,2.75094697 L26.9592803,21.45 L45.6666667,21.45 C47.1854497,21.45 48.4166667,22.6812169 48.4166667,24.2 C48.4166667,25.7187831 47.1854497,26.95 45.6666667,26.95 L26.9592803,26.95 L26.9592803,45.649053 C26.9592803,47.1683591 25.7276394,48.4 24.2083333,48.4 C22.6890273,48.4 21.4573864,47.1683591 21.4573864,45.649053 L21.4573864,26.95 L2.75,26.95 C1.23121694,26.95 1.85997282e-16,25.7187831 0,24.2 C-1.85997282e-16,22.6812169 1.23121694,21.45 2.75,21.45 L21.4573864,21.45 Z" id="PieMenu_Expand" fill="#32394F" fill-rule="nonzero"></path>
    </g>
</svg>