<?xml version="1.0" encoding="UTF-8"?>
<svg width="88px" height="88px" viewBox="0 0 88 88" version="1.1" xmlns="http://www.w3.org/2000/svg" xmlns:xlink="http://www.w3.org/1999/xlink">
    <!-- Generator: Sketch 52.4 (67378) - http://www.bohemiancoding.com/sketch -->
    <title>Useful Copy 5</title>
    <desc>Created with Sketch.</desc>
    <g id="Useful-Copy-5" stroke="none" stroke-width="1" fill="none" fill-rule="evenodd">
        <path d="M41.0454545,41.0375215 L41.0454545,20.9545455 C41.0454545,19.3227951 42.3682496,18 44,18 C45.6317504,18 46.9545455,19.3227951 46.9545455,20.9545455 L46.9545455,41.0375215 L67.0464716,41.0375215 C68.6776603,41.0375215 70,42.3598612 70,43.9910499 C70,45.6222386 68.6776603,46.9445783 67.0464716,46.9445783 L46.9545455,46.9445783 L46.9545455,67.0275544 C46.9545455,68.6593048 45.6317504,69.9820998 44,69.9820998 C42.3682496,69.9820998 41.0454545,68.6593048 41.0454545,67.0275544 L41.0454545,46.9445783 L20.9535284,46.9445783 C19.3223397,46.9445783 18,45.6222386 18,43.9910499 C18,42.3598612 19.3223397,41.0375215 20.9535284,41.0375215 L41.0454545,41.0375215 Z" id="PieMenu_Expand" fill="#32394F" fill-rule="nonzero"></path>
    </g>
</svg>