<?xml version="1.0" encoding="UTF-8"?>
<svg width="37px" height="37px" viewBox="0 0 37 37" version="1.1" xmlns="http://www.w3.org/2000/svg" xmlns:xlink="http://www.w3.org/1999/xlink">
    <!-- Generator: Sketch 52.4 (67378) - http://www.bohemiancoding.com/sketch -->
    <title>PieMenu_Collapse</title>
    <desc>Created with Sketch.</desc>
    <g id="Page-1" stroke="none" stroke-width="1" fill="none" fill-rule="evenodd">
        <path d="M15.4789138,15.4798608 L15.4789138,-3.21919226 C15.4789138,-4.73849832 16.7105547,-5.97013923 18.2298608,-5.97013923 C19.7491668,-5.97013923 20.9808077,-4.73849832 20.9808077,-3.21919226 L20.9808077,15.4798608 L39.6881941,15.4798608 C41.2069772,15.4798608 42.4381941,16.7110777 42.4381941,18.2298608 C42.4381941,19.7486438 41.2069772,20.9798608 39.6881941,20.9798608 L20.9808077,20.9798608 L20.9808077,39.6789138 C20.9808077,41.1982199 19.7491668,42.4298608 18.2298608,42.4298608 C16.7105547,42.4298608 15.4789138,41.1982199 15.4789138,39.6789138 L15.4789138,20.9798608 L-3.22847257,20.9798608 C-4.74725563,20.9798608 -5.97847257,19.7486438 -5.97847257,18.2298608 C-5.97847257,16.7110777 -4.74725563,15.4798608 -3.22847257,15.4798608 L15.4789138,15.4798608 Z" id="PieMenu_Collapse" fill="#32394F" fill-rule="nonzero" transform="translate(18.229861, 18.229861) rotate(45.000000) translate(-18.229861, -18.229861) "></path>
    </g>
</svg>