<?xml version="1.0" encoding="UTF-8"?>
<svg width="88px" height="88px" viewBox="0 0 88 88" version="1.1" xmlns="http://www.w3.org/2000/svg" xmlns:xlink="http://www.w3.org/1999/xlink">
    <!-- Generator: Sketch 52.4 (67378) - http://www.bohemiancoding.com/sketch -->
    <title>Stroke_Curve</title>
    <desc>Created with Sketch.</desc>
    <g id="Stroke_Curve" stroke="none" stroke-width="1" fill="none" fill-rule="evenodd">
        <rect id="矩形" fill-rule="nonzero" x="0" y="0" width="88" height="88"></rect>
        <path d="M15,47.2134509 L16.2989437,44.0036242 C17.2943677,41.5438266 20.0953783,40.3567172 22.5551759,41.3521412 C23.8339911,41.8696486 24.8286621,42.9118769 25.285923,44.2134509 L25.2962105,44.242734 C26.1030142,46.5392672 28.6187658,47.7469316 30.9152989,46.9401279 C32.1873803,46.4932283 33.1849235,45.488644 33.6228649,44.2134509 L33.6849809,44.0325821 C34.3953018,41.9642773 36.6478229,40.8634138 38.7161277,41.5737347 C39.9342349,41.992071 40.8727785,42.9767029 41.2322849,44.2134509 L41.2322849,44.2134509 C41.8390261,46.3007177 44.0229511,47.5009209 46.110218,46.8941798 C47.3441411,46.5354945 48.3252652,45.5970291 48.7384118,44.3802583 L48.8248821,44.125592 C49.5554798,41.9738865 51.8920481,40.821851 54.0437536,41.5524487 C55.2855669,41.9740984 56.2519866,42.9624785 56.6456321,44.2134509 L56.6572128,44.2502532 C57.3001047,46.2933096 59.4774961,47.4283673 61.5205526,46.7854754 C62.7419801,46.4011268 63.6949577,45.4386358 64.0671549,44.2134509 L64.0671549,44.2134509 C64.7927858,41.8248461 67.3173726,40.4767393 69.7059775,41.2023702 C70.9939194,41.5936323 72.0404742,42.53855 72.560825,43.7799668 L74,47.2134509" id="Stroke_Zigzag" stroke="#FFFFFF" stroke-width="4" fill-rule="nonzero" transform="translate(44.500000, 44.106725) scale(1, -1) translate(-44.500000, -44.106725) "></path>
    </g>
</svg>