<?xml version="1.0" encoding="UTF-8"?>
<svg width="88px" height="88px" viewBox="0 0 88 88" version="1.1" xmlns="http://www.w3.org/2000/svg" xmlns:xlink="http://www.w3.org/1999/xlink">
    <!-- Generator: Sketch 52.4 (67378) - http://www.bohemiancoding.com/sketch -->
    <title>Useful</title>
    <desc>Created with Sketch.</desc>
    <g id="Useful" stroke="none" stroke-width="1" fill="none" fill-rule="evenodd">
        <g id="分组-15-copy" transform="translate(8.000000, 8.000000)" fill-rule="nonzero">
            <rect id="矩形" x="0" y="0" width="72" height="72"></rect>
            <g id="分组-9" transform="translate(35.639726, 35.901952) rotate(-315.000000) translate(-35.639726, -35.901952) translate(25.286161, 4.851952)">
                <g id="分组-10" transform="translate(7.998907, 6.369231)" fill="#FFFFFF">
                    <rect id="矩形" x="0.761800699" y="-1.87583282e-12" width="3.18571202" height="8.75769231"></rect>
                    <rect id="矩形-copy-3" x="0.761800699" y="35.8269231" width="3.18571202" height="8.75769231"></rect>
                </g>
                <path d="M1.80073703,0.66537477 L0.770376444,19.1626267 L0.770376444,28.8183682 L1.80073703,34.7442853 C-0.369788992,48.1377988 2.61574975,57.2563704 10.7573532,62.1 C18.7555586,56.9410984 21.5768915,47.8225268 19.2213518,34.7442853 L20.1781591,28.8183682 L20.1781591,19.1626267 L19.2213518,0.66537477" id="路径-14" stroke="#FFFFFF" stroke-width="4.4"></path>
                <path d="M0.796428004,17.9134615 L19.9402804,17.9134615" id="路径-13" stroke="#FFFFFF" stroke-width="4.4"></path>
                <path d="M0.796428004,28.2634615 L19.9402804,28.2634615" id="路径-13-copy" stroke="#FFFFFF" stroke-width="4.4"></path>
                <path d="M0.796428004,35.4288462 L19.9402804,35.4288462" id="路径-13-copy-2" stroke="#FFFFFF" stroke-width="4.4"></path>
            </g>
        </g>
    </g>
</svg>