<?xml version="1.0" encoding="UTF-8"?>
<svg width="88px" height="88px" viewBox="0 0 88 88" version="1.1" xmlns="http://www.w3.org/2000/svg" xmlns:xlink="http://www.w3.org/1999/xlink">
    <!-- Generator: Sketch 52.4 (67378) - http://www.bohemiancoding.com/sketch -->
    <title>Useful Copy 2</title>
    <desc>Created with Sketch.</desc>
    <g id="Useful-Copy-2" stroke="none" stroke-width="1" fill="none" fill-rule="evenodd">
        <g id="Symbol_Add-Pic" transform="translate(4.000000, 4.000000)">
            <rect id="矩形" fill="#000000" opacity="0" x="0" y="0" width="80" height="80"></rect>
            <path d="M26.25,33.125 C26.25,35.1960678 27.9289322,36.875 30,36.875 C32.0710678,36.875 33.75,35.1960678 33.75,33.125 C33.75,31.0539322 32.0710678,29.375 30,29.375 C27.9289322,29.375 26.25,31.0539322 26.25,33.125 Z M59.5399107,63.125 L21.7100893,63.125 C18.0109375,63.125 15,60.040625 15,56.25125 L15,24.99875 C15,21.209375 18.0109375,18.125 21.7100893,18.125 L59.5399107,18.125 C63.2390625,18.125 66.25,21.209375 66.25,24.99875 L66.25,56.25125 C66.25,60.040625 63.2390625,63.125 59.5399107,63.125 Z M21.7869792,21.875 C20.1135417,21.875 18.75,23.2775 18.75,24.99875 L18.75,56.25125 C18.75,57.974375 20.1135417,59.375 21.7869792,59.375 L59.4630208,59.375 C61.1382812,59.375 62.5,57.974375 62.5,56.25125 L62.5,24.99875 C62.5,23.2775 61.1382812,21.875 59.4630208,21.875 L21.7869792,21.875 Z M24.3219151,54.375 C24.1434274,54.375 23.9612971,54.3475877 23.7809882,54.2909357 C22.8211616,53.9912281 22.2838773,52.9696637 22.582571,52.0065789 C22.7173474,51.5716374 26.0066201,41.3358918 33.0077076,41.5186404 C35.0002128,41.5679825 36.6685261,42.0723684 38.2822003,42.560307 C40.3548427,43.185307 42.1470046,43.7244152 44.5219833,43.3442982 C45.6857957,43.1560673 46.1666196,41.9828216 46.9880272,39.3475877 C48.0717023,35.873538 49.7090534,30.625 56.9286973,30.625 C57.9358777,30.625 58.75,31.4437135 58.75,32.4524854 C58.75,33.4612573 57.9358777,34.2799708 56.9286973,34.2799708 C52.6049247,34.2799708 51.6542047,36.6209795 50.4630727,40.440424 C49.6380226,43.0902778 48.6071653,46.3888889 45.097515,46.9517544 C41.8938435,47.4634503 39.4186931,46.7160088 37.2313086,46.0599415 C35.7851943,45.6231725 34.4173959,45.2101608 32.9129999,45.1736111 C32.8856804,45.1717836 32.8583608,45.1717836 32.8310413,45.1717836 C29.3013566,45.1717836 26.7478903,50.8753655 26.0576165,53.0902778 C25.8172046,53.8724415 25.09779,54.375 24.3219151,54.375 Z" id="形状" fill="#FFFFFF" fill-rule="nonzero"></path>
        </g>
    </g>
</svg>