<?xml version="1.0" encoding="UTF-8"?>
<svg width="88px" height="88px" viewBox="0 0 88 88" version="1.1" xmlns="http://www.w3.org/2000/svg" xmlns:xlink="http://www.w3.org/1999/xlink">
    <!-- Generator: Sketch 52.4 (67378) - http://www.bohemiancoding.com/sketch -->
    <title>Useful</title>
    <desc>Created with Sketch.</desc>
    <g id="Useful" stroke="none" stroke-width="1" fill="none" fill-rule="evenodd">
        <g id="Symbols" transform="translate(7.000000, 6.000000)">
            <g id="图片" transform="translate(4.261364, 0.697952)"></g>
            <rect id="矩形" fill="#000000" opacity="0" x="0" y="0.852272727" width="75" height="75"></rect>
            <path d="M63.7381492,20.2169794 C63.8506733,15.8722767 60.9421282,12.3306023 55.8716982,12.4166812 C43.4614804,12.6274787 31.0424893,12.6317792 18.6325374,12.4115204 C13.7707389,12.3252431 10.4142907,15.2496767 10.5754002,20.3111303 C10.8139407,27.8027089 10.6341547,35.3074541 10.637345,42.8066415 C10.6385413,45.5526318 10.6048439,48.2999453 10.6764924,51.0444139 C10.7502678,53.874829 12.2245129,55.876809 14.8332374,56.8478268 C16.0850265,57.3137513 17.5302266,57.4167681 18.8889567,57.4223259 C29.6050655,57.4667879 40.3213736,57.4485929 51.0376818,57.4464094 C51.6738118,57.446277 52.320576,57.4865707 52.9442108,57.3907657 C55.5849047,56.9850502 56.4557866,54.864108 54.8285407,52.7930532 C54.3739248,52.2145182 53.7999389,51.7282153 53.2746049,51.2057209 C49.8251732,47.7752675 46.3740798,44.3466007 42.7987646,40.7933476 C45.4648479,37.526914 46.4493174,37.4256175 49.0674134,39.9964064 C52.013245,42.8890815 54.9197962,45.8213886 57.8514043,48.7284874 C58.3764725,49.2491954 58.879408,49.8277965 59.4973932,50.2130014 C61.2807638,51.3244846 63.1970631,50.4716351 63.5953838,48.4109018 C63.714089,47.7968369 63.6687604,47.1479038 63.6690262,46.5150484 C63.672416,37.7483637 63.5111735,28.9776431 63.7381492,20.2169794 Z M46.0563359,50.5946023 C46.5871511,51.123914 47.0395817,51.7308879 47.8789413,52.7112015 C46.6066206,52.8142711 45.8575878,52.9266257 45.1084827,52.9277054 C36.5797578,52.9400132 28.0510329,52.9568557 19.5223804,52.9252582 C15.7100504,52.9111509 15.0396918,52.253074 15.023624,48.5342883 C15.0103066,45.4459407 14.2968111,42.0172904 15.4052696,39.3639658 C16.514669,36.708554 19.4646957,34.7935597 21.6700323,32.6162846 C24.3450977,29.9750521 25.2940366,29.9682144 27.9632393,32.6037608 C34.0154297,38.579499 40.0345438,44.5884182 46.0563359,50.5946023 Z M59.1714825,42.5015113 C57.2473429,40.5472945 55.8749568,39.1559691 54.5053418,37.7616553 C53.4852493,36.7231774 52.5098429,35.6340387 51.4429857,34.6492814 C48.3152283,31.7622491 44.749269,31.7404051 41.6319037,34.6235951 C40.8179913,35.3763225 40.1909294,36.3421532 39.3369726,37.3817694 C38.3736904,36.5764599 37.6797725,36.0842947 37.0875589,35.4859693 C34.5674647,32.939404 32.1233024,30.3118666 29.5650344,27.8071393 C26.2802864,24.5912379 22.5233195,24.5563017 19.2721728,27.7571899 C18.0884386,28.9226758 17.1883406,30.392056 16.1588951,31.7228303 C15.7780578,31.4903023 15.3971512,31.2578455 15.0163138,31.0253888 C15.0163138,27.3180337 14.9365022,23.6081171 15.0487373,19.9043197 C15.1080418,17.948253 16.0664051,17.0877999 17.9528558,16.8544182 C18.6072143,16.7735884 19.2770224,16.8182724 19.9398332,16.8182013 C31.4304237,16.8166359 42.9210141,16.8100187 54.4116046,16.8206917 C58.5866819,16.8246762 59.2939018,17.5213351 59.3103907,21.6849943 C59.3336691,27.5853555 59.3200208,33.4860725 59.3115684,39.3866471 C59.3104601,40.1398014 59.2462366,40.893098 59.1714825,42.5015113 Z" id="形状" fill="#FFFFFF" fill-rule="nonzero"></path>
            <path d="M62.6935708,57.4768519 L62.6935708,54.1292735 C62.6935708,52.8714883 63.5330369,51.8518519 64.5685708,51.8518519 C65.6041047,51.8518519 66.4435708,52.8714883 66.4435708,54.1292735 L66.4435708,57.4768519 L69.8229613,57.4768519 C70.8584952,57.4768519 71.6979613,58.3163179 71.6979613,59.3518519 C71.6979613,60.3873858 70.8584952,61.2268519 69.8229613,61.2268519 L66.4435708,61.2268519 L66.4435708,64.3776709 C66.4435708,65.6354562 65.6041047,66.6550926 64.5685708,66.6550926 C63.5330369,66.6550926 62.6935708,65.6354562 62.6935708,64.3776709 L62.6935708,61.2268519 L58.9435708,61.2268519 C57.9080369,61.2268519 57.0685708,60.3873858 57.0685708,59.3518519 C57.0685708,58.3163179 57.9080369,57.4768519 58.9435708,57.4768519 L62.6935708,57.4768519 Z" id="合并形状" fill="#FFFFFF" fill-rule="nonzero"></path>
        </g>
    </g>
</svg>