<?xml version="1.0" encoding="UTF-8"?>
<svg width="55px" height="55px" viewBox="0 0 55 55" version="1.1" xmlns="http://www.w3.org/2000/svg" xmlns:xlink="http://www.w3.org/1999/xlink">
    <!-- Generator: Sketch 52.4 (67378) - http://www.bohemiancoding.com/sketch -->
    <title>Symbol_Appear</title>
    <desc>Created with Sketch.</desc>
    <g id="Page-1" stroke="none" stroke-width="1" fill="none" fill-rule="evenodd">
        <g id="Symbol_Appear" transform="translate(28.000000, 26.000000) scale(-1, 1) rotate(-270.000000) translate(-28.000000, -26.000000) translate(-4.000000, -6.000000)" fill-rule="nonzero">
            <rect id="矩形" x="0" y="0" width="64" height="64"></rect>
            <path d="M18,13 L25,21.8797871" id="路径-32" stroke="#FFFFFF" stroke-width="4" stroke-linecap="round"></path>
            <path d="M8,31.8797871 L19,31.8797871" id="路径-32" stroke="#FFFFFF" stroke-width="4" stroke-linecap="round"></path>
            <path d="M48,31.8797871 L59,31.8797871" id="路径-32" stroke="#FFFFFF" stroke-width="4" stroke-linecap="round"></path>
            <path d="M29,51.8797871 L40,51.8797871" id="路径-32" stroke="#FFFFFF" stroke-width="4" stroke-linecap="round" transform="translate(34.000000, 52.000000) rotate(-90.000000) translate(-34.000000, -52.000000) "></path>
            <path d="M29,11.8797871 L40,11.8797871" id="路径-32" stroke="#FFFFFF" stroke-width="4" stroke-linecap="round" transform="translate(34.000000, 12.000000) rotate(-90.000000) translate(-34.000000, -12.000000) "></path>
            <path d="M42,13 L49,21.8797871" id="路径-32" stroke="#FFFFFF" stroke-width="4" stroke-linecap="round" transform="translate(45.500000, 17.439894) scale(-1, 1) translate(-45.500000, -17.439894) "></path>
            <path d="M18,41.8797871 L25,50.7595743" id="路径-32" stroke="#FFFFFF" stroke-width="4" stroke-linecap="round" transform="translate(21.500000, 46.319681) scale(1, -1) translate(-21.500000, -46.319681) "></path>
            <path d="M42,42 L49,50.8797871" id="路径-32" stroke="#FFFFFF" stroke-width="4" stroke-linecap="round" transform="translate(45.500000, 46.439894) scale(-1, -1) translate(-45.500000, -46.439894) "></path>
        </g>
    </g>
</svg>