<?xml version="1.0" encoding="UTF-8"?>
<svg width="41px" height="37px" viewBox="0 0 41 37" version="1.1" xmlns="http://www.w3.org/2000/svg" xmlns:xlink="http://www.w3.org/1999/xlink">
    <!-- Generator: Sketch 52.4 (67378) - http://www.bohemiancoding.com/sketch -->
    <title>Symbol_Add Pic</title>
    <desc>Created with Sketch.</desc>
    <g id="Page-1" stroke="none" stroke-width="1" fill="none" fill-rule="evenodd">
        <g id="Symbol_Add-Pic" transform="translate(-12.000000, -14.000000)">
            <rect id="矩形" fill="#000000" opacity="0" x="0" y="0" width="64" height="64"></rect>
            <path d="M21,26.5 C21,28.1568542 22.3431458,29.5 24,29.5 C25.6568542,29.5 27,28.1568542 27,26.5 C27,24.8431458 25.6568542,23.5 24,23.5 C22.3431458,23.5 21,24.8431458 21,26.5 Z M47.6319286,50.5 L17.3680714,50.5 C14.40875,50.5 12,48.0325 12,45.001 L12,19.999 C12,16.9675 14.40875,14.5 17.3680714,14.5 L47.6319286,14.5 C50.59125,14.5 53,16.9675 53,19.999 L53,45.001 C53,48.0325 50.59125,50.5 47.6319286,50.5 Z M17.4295833,17.5 C16.0908333,17.5 15,18.622 15,19.999 L15,45.001 C15,46.3795 16.0908333,47.5 17.4295833,47.5 L47.5704167,47.5 C48.910625,47.5 50,46.3795 50,45.001 L50,19.999 C50,18.622 48.910625,17.5 47.5704167,17.5 L17.4295833,17.5 Z M19.457532,43.5 C19.3147419,43.5 19.1690377,43.4780702 19.0247905,43.4327485 C18.2569293,43.1929825 17.8271019,42.375731 18.0660568,41.6052632 C18.1738779,41.2573099 20.805296,33.0687135 26.4061661,33.2149123 C28.0001702,33.254386 29.3348208,33.6578947 30.6257602,34.0482456 C32.2838742,34.5482456 33.7176037,34.9795322 35.6175866,34.6754386 C36.5486366,34.5248538 36.9332957,33.5862573 37.5904217,31.4780702 C38.4573618,28.6988304 39.7672427,24.5 45.5429578,24.5 C46.3487022,24.5 47,25.1549708 47,25.9619883 C47,26.7690058 46.3487022,27.4239766 45.5429578,27.4239766 C42.0839398,27.4239766 41.3233637,29.2967836 40.3704582,32.3523392 C39.7104181,34.4722222 38.8857322,37.1111111 36.078012,37.5614035 C33.5150748,37.9707602 31.5349545,37.372807 29.7850469,36.8479532 C28.6281554,36.498538 27.5339167,36.1681287 26.3303999,36.1388889 C26.3085443,36.1374269 26.2866887,36.1374269 26.264833,36.1374269 C23.4410853,36.1374269 21.3983122,40.7002924 20.8460932,42.4722222 C20.6537637,43.0979532 20.078232,43.5 19.457532,43.5 Z" id="形状" fill="#FFFFFF" fill-rule="nonzero"></path>
        </g>
    </g>
</svg>