<?xml version="1.0" encoding="UTF-8"?>
<svg width="73px" height="66px" viewBox="0 0 73 66" version="1.1" xmlns="http://www.w3.org/2000/svg" xmlns:xlink="http://www.w3.org/1999/xlink">
    <!-- Generator: Sketch 52.4 (67378) - http://www.bohemiancoding.com/sketch -->
    <title>Symbols</title>
    <desc>Created with Sketch.</desc>
    <g id="Page-1" stroke="none" stroke-width="1" fill="none" fill-rule="evenodd">
        <g id="Symbols" transform="translate(-12.000000, -14.000000)">
            <g id="图片" transform="translate(5.000000, 0.818930)"></g>
            <rect id="矩形" fill="#000000" opacity="0" x="0" y="1" width="88" height="88"></rect>
            <path d="M74.7860951,23.7212559 C74.9181233,18.6234713 71.5054304,14.4679067 65.5561259,14.568906 C50.9948037,14.8162416 36.4231875,14.8212876 21.8621772,14.5628507 C16.157667,14.4616185 12.2194345,17.892954 12.4084696,23.8317263 C12.6883571,32.6218451 12.4774082,41.4274128 12.4811514,50.2264594 C12.4825552,53.4484213 12.4430168,56.6719359 12.5270844,59.8921123 C12.6136476,63.2131327 14.3434285,65.5621225 17.4043319,66.7014501 C18.8730977,67.2481348 20.5687992,67.3690079 22.1630426,67.375529 C34.7366102,67.4276977 47.3104117,67.406349 59.8842133,67.403787 C60.6306058,67.4036317 61.3894759,67.4509097 62.1212073,67.3384985 C65.2196215,66.8624589 66.2414563,64.3738867 64.3321544,61.943849 C63.7987384,61.2650347 63.1252616,60.6944392 62.5088697,60.0813791 C58.4615365,56.0563139 54.4122537,52.0333448 50.2172172,47.8641946 C53.3454216,44.0315791 54.5005324,43.9127245 57.5724317,46.9291168 C61.0288741,50.3231889 64.4392275,53.7637626 67.8789811,57.1747585 C68.495061,57.7857226 69.085172,58.4646146 69.8102747,58.9165883 C71.9027629,60.2207287 74.1512207,59.2200518 74.6185836,56.8021248 C74.7578645,56.081622 74.7046788,55.3202071 74.7049908,54.5776567 C74.7089681,44.2914134 74.5197769,34.0004346 74.7860951,23.7212559 Z M54.0394341,59.3643333 C54.6622573,59.9853925 55.1931092,60.6975752 56.1779578,61.8478097 C54.6851015,61.9687448 53.8062364,62.1005742 52.9272864,62.101841 C42.9202491,62.1162822 32.9132119,62.136044 22.9062597,62.0989696 C18.4331259,62.0824171 17.6465717,61.3102735 17.6277189,56.9468983 C17.6120931,53.3232371 16.774925,49.3002873 18.0755164,46.1870532 C19.3772116,43.07137 22.8385763,40.8244434 25.4261713,38.269774 C28.5649146,35.1707278 29.6783363,35.1627049 32.8102008,38.2550794 C39.9114375,45.2666121 46.9738648,52.3170773 54.0394341,59.3643333 Z M69.4278728,49.8684399 C67.1702157,47.5754922 65.5599493,45.9430038 63.9529344,44.3070088 C62.7560258,43.0885282 61.611549,41.8106054 60.3597698,40.6551568 C56.6898678,37.2677056 52.5058089,37.2420753 48.8481004,40.6250183 C47.8931097,41.5082185 47.1573572,42.6414597 46.1553811,43.8612761 C45.02513,42.9163796 44.210933,42.3389058 43.5160692,41.6368706 C40.5591586,38.6489007 37.6913415,35.5659235 34.6896403,32.6270434 C30.8355361,28.8537191 26.4273616,28.8127273 22.6126828,32.5684361 C21.223768,33.9359396 20.167653,35.6600124 18.9597703,37.2214542 C18.5129212,36.9486214 18.0659907,36.6758721 17.6191416,36.4031228 C17.6191416,32.0531595 17.5254959,27.7001908 17.6571851,23.3544018 C17.726769,21.0592835 18.8512486,20.0496853 21.0646841,19.7758506 C21.8324647,19.6810103 22.6183729,19.7334396 23.3960709,19.7333562 C36.8783638,19.7315195 50.3606566,19.7237553 63.8429494,19.7362782 C68.7417068,19.7409534 69.5715114,20.5583665 69.5908584,25.4437266 C69.6181717,32.3668171 69.6021577,39.290325 69.5922403,46.2136659 C69.5909398,47.0973669 69.5155843,47.981235 69.4278728,49.8684399 Z" id="形状" fill="#FFFFFF" fill-rule="nonzero"></path>
            <path d="M72.3812196,67.3580247 L72.3812196,63.6809117 C72.3812196,62.1116468 73.5976551,60.8395062 75.0982043,60.8395062 C76.5987535,60.8395062 77.8151889,62.1116468 77.8151889,63.6809117 L77.8151889,67.3580247 L81.6199027,67.3580247 C83.1199354,67.3580247 84.3359521,68.5740414 84.3359521,70.0740741 C84.3359521,71.5741067 83.1199354,72.7901235 81.6199027,72.7901235 L77.8151889,72.7901235 L77.8151889,76.4672365 C77.8151889,78.0365014 76.5987535,79.308642 75.0982043,79.308642 C73.5976551,79.308642 72.3812196,78.0365014 72.3812196,76.4672365 L72.3812196,72.7901235 L68.5765058,72.7901235 C67.0764731,72.7901235 65.8604564,71.5741067 65.8604564,70.0740741 C65.8604564,68.5740414 67.0764731,67.3580247 68.5765058,67.3580247 L72.3812196,67.3580247 Z" id="合并形状" fill="#FFFFFF" fill-rule="nonzero"></path>
        </g>
    </g>
</svg>