<?xml version="1.0" encoding="UTF-8"?>
<svg width="45px" height="47px" viewBox="0 0 45 47" version="1.1" xmlns="http://www.w3.org/2000/svg" xmlns:xlink="http://www.w3.org/1999/xlink">
    <!-- Generator: Sketch 52.4 (67378) - http://www.bohemiancoding.com/sketch -->
    <title>Text</title>
    <desc>Created with Sketch.</desc>
    <g id="Page-1" stroke="none" stroke-width="1" fill="none" fill-rule="evenodd">
        <g id="Text" transform="translate(-21.000000, -20.000000)">
            <rect id="矩形" fill="#000000" opacity="0" x="0" y="0" width="88" height="88"></rect>
            <path d="M63.3928571,29.7142857 C62.8208479,29.7142857 62.3571429,29.2825603 62.3571429,28.75 L62.3571429,23.9285714 L25.0714286,23.9285714 L25.0714286,28.75 C25.0714286,29.2825603 24.6077235,29.7142857 24.0357143,29.7142857 C23.4637051,29.7142857 23,29.2825603 23,28.75 L23,22.9642857 C23,22.7085412 23.1091196,22.4632714 23.3033537,22.2824327 C23.4975878,22.1015941 23.7610258,22 24.0357143,22 L63.3928571,22 C63.6675456,22 63.9309836,22.1015941 64.1252178,22.2824327 C64.3194519,22.4632714 64.4285715,22.7085412 64.4285715,22.9642857 L64.4285715,28.75 C64.4285715,29.0057445 64.3194519,29.2510143 64.1252178,29.431853 C63.9309836,29.6126916 63.6675456,29.7142857 63.3928571,29.7142857 Z M43.7142857,65.3928572 C43.4395972,65.3928572 43.1761592,65.291263 42.9819251,65.1104244 C42.787691,64.9295857 42.6785714,64.6843159 42.6785715,64.4285714 L42.6785715,22.9642857 C42.6785715,22.4317254 43.1422765,22 43.7142857,22 C44.2862949,22 44.75,22.4317254 44.75,22.9642857 L44.75,64.4285714 C44.75,64.6843159 44.6408804,64.9295857 44.4466463,65.1104244 C44.2524122,65.291263 43.9889742,65.3928572 43.7142857,65.3928572 Z M54.0714286,65.3928572 L33.3571429,65.3928572 C32.7851337,65.3928572 32.3214286,64.9611317 32.3214286,64.4285714 C32.3214286,63.8960111 32.7851337,63.4642857 33.3571429,63.4642857 L54.0714286,63.4642857 C54.6434378,63.4642857 55.1071429,63.8960111 55.1071429,64.4285714 C55.1071429,64.9611317 54.6434378,65.3928572 54.0714286,65.3928572 Z" id="形状" stroke="#FFFFFF" stroke-width="3" fill="#FFFFFF" fill-rule="nonzero"></path>
        </g>
    </g>
</svg>