<?xml version="1.0" encoding="UTF-8"?>
<svg width="88px" height="88px" viewBox="0 0 88 88" version="1.1" xmlns="http://www.w3.org/2000/svg" xmlns:xlink="http://www.w3.org/1999/xlink">
    <!-- Generator: Sketch 52.4 (67378) - http://www.bohemiancoding.com/sketch -->
    <title>Useful</title>
    <desc>Created with Sketch.</desc>
    <g id="Useful" stroke="none" stroke-width="1" fill="none" fill-rule="evenodd">
        <g id="Text" transform="translate(4.000000, 4.000000)">
            <rect id="矩形" fill="#000000" opacity="0" x="0" y="0" width="81" height="81"></rect>
            <path d="M58.3502435,27.3506493 C57.823735,27.3506493 57.3969156,26.9532657 57.3969156,26.4630682 L57.3969156,22.0251623 L23.0771104,22.0251623 L23.0771104,26.4630682 C23.0771104,26.9532657 22.6502909,27.3506493 22.1237825,27.3506493 C21.597274,27.3506493 21.1704546,26.9532657 21.1704545,26.4630682 L21.1704545,21.1375812 C21.1704545,20.90218 21.2708942,20.6764202 21.4496778,20.5099665 C21.6284615,20.3435127 21.8709442,20.25 22.1237825,20.25 L58.3502435,20.25 C58.6030818,20.25 58.8455645,20.3435127 59.0243482,20.5099665 C59.2031318,20.6764202 59.3035715,20.90218 59.3035715,21.1375812 L59.3035715,26.4630682 C59.3035715,26.6984693 59.2031318,26.9242291 59.0243482,27.0906829 C58.8455645,27.2571366 58.6030818,27.3506493 58.3502435,27.3506493 Z M40.237013,60.1911526 C39.9841747,60.1911526 39.741692,60.0976399 39.5629084,59.9311861 C39.3841247,59.7647323 39.2836851,59.5389726 39.2836851,59.3035714 L39.2836851,21.1375812 C39.2836851,20.6473836 39.7105045,20.25 40.237013,20.25 C40.7635215,20.25 41.1903409,20.6473836 41.1903409,21.1375812 L41.1903409,59.3035714 C41.1903409,59.5389726 41.0899013,59.7647323 40.9111176,59.9311861 C40.732334,60.0976399 40.4898513,60.1911526 40.237013,60.1911526 Z M49.7702922,60.1911526 L30.7037338,60.1911526 C30.1772253,60.1911526 29.7504058,59.793769 29.7504058,59.3035714 C29.7504058,58.8133739 30.1772253,58.4159902 30.7037338,58.4159902 L49.7702922,58.4159902 C50.2968007,58.4159902 50.7236202,58.8133739 50.7236202,59.3035714 C50.7236202,59.793769 50.2968007,60.1911526 49.7702922,60.1911526 Z" id="形状" stroke="#FFFFFF" stroke-width="3" fill="#FFFFFF" fill-rule="nonzero"></path>
        </g>
    </g>
</svg>