<?xml version="1.0" encoding="UTF-8"?>
<svg width="71px" height="71px" viewBox="0 0 71 71" version="1.1" xmlns="http://www.w3.org/2000/svg" xmlns:xlink="http://www.w3.org/1999/xlink">
    <!-- Generator: Sketch 59 (86127) - https://sketch.com -->
    <title>AI generator_activate</title>
    <desc>Created with Sketch.</desc>
    <g id="页面-1" stroke="none" stroke-width="1" fill="none" fill-rule="evenodd">
        <g id="大图" transform="translate(-241.000000, -1660.000000)" fill="#5581E9" fill-rule="nonzero">
            <path d="M276.745465,1724.15663 C278.678461,1724.15663 280.245465,1725.68857 280.245465,1727.57831 C280.245465,1729.46806 278.678461,1731 276.745465,1731 C274.812468,1731 273.245465,1729.46806 273.245465,1727.57831 C273.245465,1725.68857 274.812468,1724.15663 276.745465,1724.15663 Z M247.376414,1703.23399 C250.310591,1713.71905 258.81077,1721.88633 269.49806,1724.36222 L269.498177,1727.4348 C257.149701,1724.84811 247.336788,1715.38002 244.271442,1703.23375 L247.376414,1703.23399 Z M308.366815,1703.23391 C305.372408,1715.09884 295.939389,1724.40819 283.993829,1727.24409 L283.993296,1724.15134 C294.278385,1721.44763 302.406204,1713.43853 305.26188,1703.234 L308.366815,1703.23391 Z M282.71259,1676.13743 C283.236645,1676.40068 283.51154,1676.98516 283.378187,1677.55225 L279.906907,1692.46638 L285.966878,1692.46638 C286.468123,1692.46638 286.921407,1692.7563 287.129626,1693.20626 C287.337844,1693.6568 287.261224,1694.18677 286.933105,1694.56135 L270.323015,1713.56164 C270.073855,1713.84808 269.718831,1714 269.356789,1714 C269.160268,1714 268.961993,1713.95593 268.77834,1713.86316 C268.255454,1713.59991 267.981144,1713.01601 268.112743,1712.44834 L271.584023,1697.53305 L265.524051,1697.53305 C265.022806,1697.53305 264.569522,1697.24312 264.361304,1696.79317 C264.153085,1696.34263 264.229705,1695.81265 264.557824,1695.43807 L281.167914,1676.43779 C281.552767,1675.99711 282.19029,1675.87418 282.71259,1676.13743 Z M244.404255,1692.16394 C246.284374,1692.16394 247.808511,1693.69089 247.808511,1695.57447 C247.808511,1697.45805 246.284374,1698.98499 244.404255,1698.98499 C242.524137,1698.98499 241,1697.45805 241,1695.57447 C241,1693.69089 242.524137,1692.16394 244.404255,1692.16394 Z M308.234043,1692.16394 C310.114161,1692.16394 311.638298,1693.69089 311.638298,1695.57447 C311.638298,1697.45805 310.114161,1698.98499 308.234043,1698.98499 C306.353924,1698.98499 304.829787,1697.45805 304.829787,1695.57447 C304.829787,1693.69089 306.353924,1692.16394 308.234043,1692.16394 Z M269.498177,1662.86307 L269.49806,1665.93565 C258.239283,1668.54394 249.407776,1677.46856 246.953975,1688.76527 L243.889958,1688.7656 C246.434825,1675.80806 256.57878,1665.56935 269.498177,1662.86307 Z M283.993829,1663.05378 C296.50467,1666.02388 306.25955,1676.0946 308.748244,1688.76511 L305.684399,1688.76562 C303.29302,1677.75565 294.843604,1668.99882 283.993296,1666.14654 L283.993829,1663.05378 Z M276.745465,1660 C278.678461,1660 280.245465,1661.53194 280.245465,1663.42169 C280.245465,1665.31143 278.678461,1666.84337 276.745465,1666.84337 C274.812468,1666.84337 273.245465,1665.31143 273.245465,1663.42169 C273.245465,1661.53194 274.812468,1660 276.745465,1660 Z" id="AI-generator_activate"></path>
        </g>
    </g>
</svg>