<?xml version="1.0" encoding="UTF-8"?>
<svg width="71px" height="71px" viewBox="0 0 71 71" version="1.1" xmlns="http://www.w3.org/2000/svg" xmlns:xlink="http://www.w3.org/1999/xlink">
    <!-- Generator: Sketch 59 (86127) - https://sketch.com -->
    <title>AI generator</title>
    <desc>Created with Sketch.</desc>
    <g id="页面-1" stroke="none" stroke-width="1" fill="none" fill-rule="evenodd">
        <g id="大图" transform="translate(-108.000000, -1660.000000)" fill="#34363D" fill-rule="nonzero">
            <g id="编组-13" transform="translate(74.000000, 1626.000000)">
                <g id="009-idea" transform="translate(15.000000, 15.000000)">
                    <path d="M54.7454647,83.1566265 C56.6784613,83.1566265 58.2454647,84.6885678 58.2454647,86.5783133 C58.2454647,88.4680587 56.6784613,90 54.7454647,90 C52.8124681,90 51.2454647,88.4680587 51.2454647,86.5783133 C51.2454647,84.6885678 52.8124681,83.1566265 54.7454647,83.1566265 Z M25.3764143,62.2339861 C28.3105914,72.7190514 36.8107705,80.886325 47.4980598,83.3622239 L47.4981769,86.4348007 C35.1497009,83.8481108 25.3367876,74.3800157 22.271442,62.2337515 L25.3764143,62.2339861 Z M86.3668155,62.2339115 C83.3724078,74.0988355 73.9393888,83.4081933 61.993829,86.2440877 L61.9932957,83.1513373 C72.2783854,80.4476342 80.406204,72.4385289 83.26188,62.2339989 L86.3668155,62.2339115 Z M60.7125899,35.1374288 C61.236645,35.4006773 61.51154,35.9851588 61.3781866,36.5522451 L57.9069067,51.4663802 L63.9668784,51.4663802 C64.468123,51.4663802 64.9214073,51.7563015 65.1296256,52.2062595 C65.337844,52.6567973 65.2612243,53.1867736 64.933105,53.561352 L48.3230153,72.5616389 C48.0738552,72.8480811 47.7188312,73 47.3567887,73 C47.160268,73 46.9619927,72.955932 46.7783395,72.8631571 C46.2554541,72.5999086 45.9811441,72.0160069 46.1127429,71.4483408 L49.5840228,56.533046 L43.524051,56.533046 C43.0228064,56.533046 42.5695221,56.2431246 42.3613038,55.7931666 C42.1530855,55.3426289 42.2297052,54.8126525 42.5578245,54.4380742 L59.1679142,35.4377873 C59.5527671,34.9971068 60.1902895,34.8741801 60.7125899,35.1374288 Z M22.4042553,51.1639418 C24.2843736,51.1639418 25.8085106,52.6908864 25.8085106,54.5744681 C25.8085106,56.4580498 24.2843736,57.9849944 22.4042553,57.9849944 C20.524137,57.9849944 19,56.4580498 19,54.5744681 C19,52.6908864 20.524137,51.1639418 22.4042553,51.1639418 Z M86.2340426,51.1639418 C88.1141609,51.1639418 89.6382979,52.6908864 89.6382979,54.5744681 C89.6382979,56.4580498 88.1141609,57.9849944 86.2340426,57.9849944 C84.3539243,57.9849944 82.8297872,56.4580498 82.8297872,54.5744681 C82.8297872,52.6908864 84.3539243,51.1639418 86.2340426,51.1639418 Z M47.4981769,21.8630717 L47.4980598,24.9356484 C36.2392833,27.5439424 27.4077759,36.468561 24.9539751,47.7652736 L21.8899583,47.7655954 C24.4348248,34.8080643 34.57878,24.5693548 47.4981769,21.8630717 Z M61.993829,22.0537847 C74.5046702,25.0238777 84.25955,35.0945979 86.7482443,47.7651106 L83.6843986,47.7656228 C81.2930199,36.7556494 72.8436041,27.9988206 61.9932957,25.146535 L61.993829,22.0537847 Z M54.7454647,19 C56.6784613,19 58.2454647,20.5319413 58.2454647,22.4216867 C58.2454647,24.3114322 56.6784613,25.8433735 54.7454647,25.8433735 C52.8124681,25.8433735 51.2454647,24.3114322 51.2454647,22.4216867 C51.2454647,20.5319413 52.8124681,19 54.7454647,19 Z" id="AI-generator"></path>
                </g>
            </g>
        </g>
    </g>
</svg>