<?xml version="1.0" encoding="UTF-8"?>
<svg width="67px" height="67px" viewBox="0 0 67 67" version="1.1" xmlns="http://www.w3.org/2000/svg" xmlns:xlink="http://www.w3.org/1999/xlink">
    <!-- Generator: Sketch 59 (86127) - https://sketch.com -->
    <title>terminate_active</title>
    <desc>Created with Sketch.</desc>
    <g id="页面-1" stroke="none" stroke-width="1" fill="none" fill-rule="evenodd">
        <g id="大图" transform="translate(-110.000000, -1788.000000)" fill="#B15D5D" fill-rule="nonzero">
            <path d="M143.5,1788 C162.029791,1788 177,1802.95318 177,1821.5 C177,1840.04682 162.046821,1855 143.5,1855 C124.953179,1855 110,1840.04682 110,1821.5 C110,1802.95318 124.970407,1788 143.5,1788 Z M143.5,1792.47898 C127.422867,1792.47898 114.479181,1805.42247 114.479181,1821.4998 C114.479181,1837.57713 127.422669,1850.52062 143.5,1850.52062 C159.577331,1850.52062 172.520819,1837.57713 172.520819,1821.4998 C172.520819,1805.42247 159.577133,1792.47898 143.5,1792.47898 Z M151.14211,1810 C153.245182,1810 155,1811.75466 155,1813.85789 L155,1813.85789 L155,1829.14211 C155,1831.24518 153.245182,1833 151.14211,1833 L151.14211,1833 L135.85789,1833 C133.754818,1833 132,1831.24518 132,1829.14211 L132,1829.14211 L132,1813.85789 C132,1811.75482 133.754818,1810 135.85789,1810 L135.85789,1810 Z" id="terminate_active"></path>
        </g>
    </g>
</svg>