<?xml version="1.0" encoding="UTF-8"?>
<svg width="89px" height="89px" viewBox="0 0 89 89" version="1.1" xmlns="http://www.w3.org/2000/svg" xmlns:xlink="http://www.w3.org/1999/xlink">
    <!-- Generator: Sketch 52.4 (67378) - http://www.bohemiancoding.com/sketch -->
    <title>Add</title>
    <desc>Created with Sketch.</desc>
    <g id="Add" stroke="none" stroke-width="1" fill="none" fill-rule="evenodd">
        <g id="AddLine-Copy" transform="translate(1.000000, 1.000000)" fill-rule="nonzero">
            <rect id="矩形" x="0" y="0" width="88" height="88"></rect>
            <path d="M44.5126582,36.5126582 L44.5126582,22 L44.5126582,36.5126582 L30,36.5126582 L44.5126582,36.5126582 Z M44.5126582,36.5126582 L44.5126582,50.7088608 L44.5126582,36.5126582 L58.7088608,36.5126582 L44.5126582,36.5126582 Z M68.0437618,63.5 L20.2025316,63.5 L68.0437618,63.5 C68.3346474,61.5199705 70.0404526,60 72.1012658,60 C74.3663324,60 76.2025316,61.8361993 76.2025316,64.1012658 C76.2025316,66.3663324 74.3663324,68.2025316 72.1012658,68.2025316 C69.8361993,68.2025316 68,66.3663324 68,64.1012658 C68,63.8970125 68.0149312,63.6962466 68.0437618,63.5 Z M16.1012658,68.1139241 C13.8361993,68.1139241 12,66.2777248 12,64.0126582 C12,61.7475917 13.8361993,59.9113924 16.1012658,59.9113924 C18.3663324,59.9113924 20.2025316,61.7475917 20.2025316,64.0126582 C20.2025316,66.2777248 18.3663324,68.1139241 16.1012658,68.1139241 Z" id="Add-Line" stroke="#FFFFFF" stroke-width="5" stroke-linecap="round" stroke-linejoin="round"></path>
        </g>
    </g>
</svg>