<?xml version="1.0" encoding="UTF-8"?>
<svg width="70px" height="65px" viewBox="0 0 70 65" version="1.1" xmlns="http://www.w3.org/2000/svg" xmlns:xlink="http://www.w3.org/1999/xlink">
    <!-- Generator: Sketch 52.4 (67378) - http://www.bohemiancoding.com/sketch -->
    <title>Adjust_Global</title>
    <desc>Created with Sketch.</desc>
    <g id="Page-1" stroke="none" stroke-width="1" fill="none" fill-rule="evenodd">
        <g id="Adjust_Global" transform="translate(-7.000000, -11.000000)" fill-rule="nonzero">
            <rect id="矩形" x="0" y="0" width="88" height="88"></rect>
            <path d="M60.4448648,44.278481 C69.5839859,62.1004565 38.0126582,76.9878514 11.3544304,72.2501392" id="路径-7" stroke="#FFFFFF" stroke-width="4" stroke-linecap="round" transform="translate(36.704769, 58.709149) rotate(-360.000000) translate(-36.704769, -58.709149) "></path>
            <path d="M9.15189873,19.6962025 C27.49195,21.1988107 39.5356784,23.7325831 45.283084,27.2975198" id="路径-7" stroke="#FFFFFF" stroke-width="4" stroke-linecap="round" transform="translate(27.217491, 23.496861) rotate(-360.000000) translate(-27.217491, -23.496861) "></path>
            <path d="M64.8476578,13.7978203 L37.2236094,41.3641506 L34.9480359,52.9028634 C34.8422455,53.4392932 35.1913477,53.9599156 35.7277775,54.0657061 C35.8859458,54.0968988 36.0493388,54.0889929 36.2037568,54.0426756 L46.7111602,50.8910062 L74.33664,23.3232475 C74.7233837,22.9373119 74.7243584,22.3110306 74.338818,21.9238929 L66.2484423,13.8000006 C65.8626232,13.4125832 65.2357912,13.4112874 64.8483738,13.7971065 C64.848135,13.7973443 64.8478963,13.7975822 64.8476578,13.7978203 Z" id="形状" stroke="#FFFFFF" stroke-width="4"></path>
        </g>
    </g>
</svg>