<?xml version="1.0" encoding="UTF-8"?>
<svg width="66px" height="57px" viewBox="0 0 66 57" version="1.1" xmlns="http://www.w3.org/2000/svg" xmlns:xlink="http://www.w3.org/1999/xlink">
    <!-- Generator: Sketch 52.4 (67378) - http://www.bohemiancoding.com/sketch -->
    <title>Adjust_Single</title>
    <desc>Created with Sketch.</desc>
    <g id="Page-1" stroke="none" stroke-width="1" fill="none" fill-rule="evenodd">
        <g id="Adjust_Single" transform="translate(-11.000000, -12.000000)" fill-rule="nonzero">
            <rect id="矩形" x="0" y="0" width="88" height="88"></rect>
            <path d="M39.8436677,59.3654933 C40.6130494,59.9604495 41.5747765,60.1587682 41.9594673,59.7621308 L50.0379747,53.4159311 L42.3441581,47.6646876 L38.8819407,57.3823059 C38.4972498,57.7789434 39.0742861,58.7705371 39.8436677,59.3654933 Z M65.5539132,15.7303065 L44.9113924,43.9814571 L52.9014897,49.7153205 L73.743763,21.4641699 C75.3417824,19.2892562 74.7425251,16.1257454 72.5452484,14.54399 C70.3479716,12.9622345 67.1519326,13.3576734 65.5539132,15.7303065 Z" id="形状" stroke="#FFFFFF" stroke-width="3"></path>
            <path d="M13.9895153,32.0506329 C21.4970062,33.3768659 26.1862757,36.6637976 28.0573236,41.9114282 C30.8638955,49.782874 27.6730385,58.2058002 39.486152,63.4503405 C47.3615611,66.9467007 58.9987473,62.7922411 74.3977108,50.9869617" id="路径-2" stroke="#FFFFFF" stroke-width="4" stroke-linecap="round"></path>
            <path d="M13.1102731,51.5316456 C21.3582919,54.6326247 26.4178253,56.9087939 28.2888732,58.3601533 C31.0954451,60.5371925 33.883185,64.4355712 45.6962985,65.8860759 C53.5717075,66.8530791 63.2160282,65.1811245 74.6292604,60.8702121" id="路径-2" stroke="#FFFFFF" stroke-width="4" opacity="0.362397693" stroke-linecap="round"></path>
        </g>
    </g>
</svg>