<?xml version="1.0" encoding="UTF-8"?>
<svg width="89px" height="89px" viewBox="0 0 89 89" version="1.1" xmlns="http://www.w3.org/2000/svg" xmlns:xlink="http://www.w3.org/1999/xlink">
    <!-- Generator: Sketch 52.4 (67378) - http://www.bohemiancoding.com/sketch -->
    <title>Group</title>
    <desc>Created with Sketch.</desc>
    <g id="Group" stroke="none" stroke-width="1" fill="none" fill-rule="evenodd">
        <g id="group-copy" transform="translate(1.000000, 1.000000)">
            <rect id="矩形" fill="#000000" opacity="0" x="0" y="0" width="88" height="88"></rect>
            <path d="M72.125,65.6632813 L72.125,22.3367188 C74.09375,21.640625 75.5,19.7632812 75.5,17.5625 C75.5,14.7640625 73.2359375,12.5 70.4375,12.5 C68.2367187,12.5 66.359375,13.90625 65.6632813,15.875 L22.3367188,15.875 C21.640625,13.90625 19.7632812,12.5 17.5625,12.5 C14.7640625,12.5 12.5,14.7640625 12.5,17.5625 C12.5,19.7632812 13.90625,21.640625 15.875,22.3367188 L15.875,65.6632813 C13.90625,66.359375 12.5,68.2367187 12.5,70.4375 C12.5,73.2359375 14.7640625,75.5 17.5625,75.5 C19.7632812,75.5 21.640625,74.09375 22.3367188,72.125 L65.6632813,72.125 C66.359375,74.09375 68.2367187,75.5 70.4375,75.5 C73.2359375,75.5 75.5,73.2359375 75.5,70.4375 C75.5,68.2367187 74.09375,66.359375 72.125,65.6632813 Z M70.4375,15.875 C71.3726563,15.875 72.125,16.6273438 72.125,17.5625 C72.125,18.4976562 71.3726563,19.25 70.4375,19.25 C69.5023437,19.25 68.75,18.4976562 68.75,17.5625 C68.75,16.6273438 69.5023437,15.875 70.4375,15.875 Z M17.5625,72.125 C16.6273438,72.125 15.875,71.3726563 15.875,70.4375 C15.875,69.5023437 16.6273438,68.75 17.5625,68.75 C18.4976562,68.75 19.25,69.5023437 19.25,70.4375 C19.25,71.3726563 18.4976562,72.125 17.5625,72.125 Z M17.5625,19.25 C16.6273438,19.25 15.875,18.4976562 15.875,17.5625 C15.875,16.6273438 16.6273438,15.875 17.5625,15.875 C18.4976562,15.875 19.25,16.6273438 19.25,17.5625 C19.25,18.4976562 18.4976562,19.25 17.5625,19.25 Z M67.0625,67.0625 L20.9375,67.0625 L20.9375,20.9375 L67.0625,20.9375 L67.0625,67.0625 Z M70.4375,72.125 C69.5023437,72.125 68.75,71.3726563 68.75,70.4375 C68.75,69.5023437 69.5023437,68.75 70.4375,68.75 C71.3726563,68.75 72.125,69.5023437 72.125,70.4375 C72.125,71.3726563 71.3726563,72.125 70.4375,72.125 Z" id="形状" fill="#FFFFFF" fill-rule="nonzero"></path>
            <path d="M30.7746077,34.8035714 L57.3410928,34.8035714" id="直线" stroke="#FFFFFF" stroke-width="3" stroke-linecap="square" fill-rule="nonzero"></path>
            <path d="M30.7746077,42.5892857 L57.3410928,42.5892857" id="直线-copy" stroke="#FFFFFF" stroke-width="3" stroke-linecap="square" fill-rule="nonzero"></path>
            <path d="M30.7746077,53.1607143 L57.3410928,53.1607143" id="直线-copy-2" stroke="#FFFFFF" stroke-width="3" stroke-linecap="square" fill-rule="nonzero"></path>
        </g>
    </g>
</svg>