<?xml version="1.0" encoding="UTF-8"?>
<svg width="89px" height="89px" viewBox="0 0 89 89" version="1.1" xmlns="http://www.w3.org/2000/svg" xmlns:xlink="http://www.w3.org/1999/xlink">
    <!-- Generator: Sketch 52.4 (67378) - http://www.bohemiancoding.com/sketch -->
    <title>Move</title>
    <desc>Created with Sketch.</desc>
    <g id="Move" stroke="none" stroke-width="1" fill="none" fill-rule="evenodd">
        <g transform="translate(1.000000, 1.000000)">
            <rect id="矩形" fill-rule="nonzero" x="0" y="0" width="88" height="88"></rect>
            <path d="M42.2398659,19.3220847 L35.2130542,26.3520784 C34.3179961,27.2475419 32.8667996,27.2475419 31.9717414,26.3520784 C31.0766833,25.456615 31.0766833,24.0047612 31.9717414,23.1092978 L42.404717,12.6715976 C43.2997751,11.7761341 44.7509716,11.7761341 45.6460298,12.6715976 L56.0790054,23.1092978 C56.9740635,24.0047612 56.9740635,25.456615 56.0790054,26.3520784 C55.1839472,27.2475419 53.7327507,27.2475419 52.8376926,26.3520784 L46.3173361,19.8287692 L46.3171842,41.7006659 L68.1792313,41.7006659 L61.654418,35.1728978 C60.7593598,34.2774343 60.7593598,32.8255806 61.654418,31.9301172 C62.5494761,31.0346537 64.0006727,31.0346537 64.8957308,31.9301172 L75.3287064,42.3678174 C76.2237645,43.2632808 76.2237645,44.7151345 75.3287064,45.610598 L64.8957308,56.0482981 C64.0006727,56.9437616 62.5494761,56.9437616 61.654418,56.0482981 C60.7593598,55.1528346 60.7593598,53.7009809 61.654418,52.8055175 L68.1702671,46.2867177 L46.3172854,46.286667 L46.3172854,68.1711802 L52.8375913,61.6479216 C53.7326494,60.7524581 55.183846,60.7524581 56.0789041,61.6479216 C56.9739622,62.543385 56.9739622,63.9952388 56.0789041,64.8907022 L45.6459285,75.3284024 C44.7508704,76.2238659 43.2996738,76.2238659 42.4046157,75.3284024 L31.9716401,64.8907022 C31.0765819,63.9952388 31.0765819,62.543385 31.9716401,61.6479216 C32.8666982,60.7524581 34.3178948,60.7524581 35.2129529,61.6479216 L41.7333601,68.1712815 L41.7333601,46.2359986 L19.8297329,46.2360493 L26.345582,52.7548491 C27.2406402,53.6503125 27.2406402,55.1021663 26.345582,55.9976297 C25.4505239,56.8930932 23.9993273,56.8930932 23.1042692,55.9976297 L12.6712936,45.5599295 C11.7762355,44.6644661 11.7762355,43.2126124 12.6712936,42.3171489 L23.1042692,31.8794487 C23.9993273,30.9839852 25.4505239,30.9839852 26.345582,31.8794487 C27.2406402,32.7749122 27.2406402,34.2267659 26.345582,35.1222293 L19.820718,41.6500481 L41.7694703,41.6500481 L42.2398659,19.3220847 Z" stroke="#6E6E6D" stroke-width="0.3" fill="#FFFFFF"></path>
        </g>
    </g>
</svg>