<?xml version="1.0" encoding="UTF-8"?>
<svg width="59px" height="59px" viewBox="0 0 59 59" version="1.1" xmlns="http://www.w3.org/2000/svg" xmlns:xlink="http://www.w3.org/1999/xlink">
    <!-- Generator: Sketch 52.4 (67378) - http://www.bohemiancoding.com/sketch -->
    <title>Move</title>
    <desc>Created with Sketch.</desc>
    <g id="Page-1" stroke="none" stroke-width="1" fill="none" fill-rule="evenodd">
        <g id="Move" transform="translate(-14.000000, -14.000000)">
            <rect id="矩形" fill-rule="nonzero" x="0" y="0" width="88" height="88"></rect>
            <path d="M42.2417606,21.596143 L35.9116161,27.9291541 C35.1052978,28.7358376 33.7979788,28.7358376 32.9916605,27.9291541 C32.1853421,27.1224706 32.1853421,25.8145596 32.9916605,25.0078761 L42.3902677,15.6050126 C43.1965861,14.7983291 44.503905,14.7983291 45.3102234,15.6050126 L54.7088307,25.0078761 C55.5151491,25.8145596 55.5151491,27.1224706 54.7088307,27.9291541 C53.9025123,28.7358376 52.5951934,28.7358376 51.788875,27.9291541 L45.9149736,22.0525927 L45.9148368,41.7560192 L65.6093902,41.7560192 L59.7314739,35.875441 C58.9251555,35.0687575 58.9251555,33.7608465 59.7314739,32.954163 C60.5377922,32.1474795 61.8451111,32.1474795 62.6514295,32.954163 L72.0500368,42.3570265 C72.8563552,43.16371 72.8563552,44.4716209 72.0500368,45.2783045 L62.6514295,54.6811679 C61.8451111,55.4878514 60.5377922,55.4878514 59.7314739,54.6811679 C58.9251555,53.8744843 58.9251555,52.5665734 59.7314739,51.7598899 L65.6013147,45.8873909 L45.914928,45.8873452 L45.914928,65.6021374 L51.7887838,59.7256215 C52.5951022,58.918938 53.9024211,58.918938 54.7087395,59.7256215 C55.5150578,60.532305 55.5150578,61.840216 54.7087395,62.6468995 L45.3101321,72.049763 C44.5038138,72.8564465 43.1964949,72.8564465 42.3901765,72.049763 L32.9915692,62.6468995 C32.1852508,61.840216 32.1852508,60.532305 32.9915692,59.7256215 C33.7978875,58.918938 35.1052065,58.918938 35.9115248,59.7256215 L41.7854719,65.6022286 L41.7854719,45.8417003 L22.0534609,45.8417459 L27.9233018,51.714245 C28.7296201,52.5209285 28.7296201,53.8288394 27.9233018,54.6355229 C27.1169834,55.4422065 25.8096645,55.4422065 25.0033461,54.6355229 L15.6047388,45.2326595 C14.7984204,44.425976 14.7984204,43.118065 15.6047388,42.3113815 L25.0033461,32.908518 C25.8096645,32.1018345 27.1169834,32.1018345 27.9233018,32.908518 C28.7296201,33.7152016 28.7296201,35.0231125 27.9233018,35.829796 L22.0453398,41.7104198 L41.8180021,41.7104198 L42.2417606,21.596143 Z" stroke="#6E6E6D" stroke-width="0.3" fill="#FFFFFF"></path>
        </g>
    </g>
</svg>