<?xml version="1.0" encoding="UTF-8"?>
<svg width="89px" height="89px" viewBox="0 0 89 89" version="1.1" xmlns="http://www.w3.org/2000/svg" xmlns:xlink="http://www.w3.org/1999/xlink">
    <!-- Generator: Sketch 52.4 (67378) - http://www.bohemiancoding.com/sketch -->
    <title>Scale</title>
    <desc>Created with Sketch.</desc>
    <g id="Scale" stroke="none" stroke-width="1" fill="none" fill-rule="evenodd">
        <g id="scale-screen" transform="translate(1.000000, 1.000000)">
            <rect id="矩形" fill="#000000" opacity="0" x="0" y="0" width="88" height="88"></rect>
            <path d="M54.5451389,31.4548611 L54.5451389,17.2569444 C54.5451389,16.0104684 53.5346704,15 52.2881944,15 L52.2881944,15 C51.0417184,15 50.03125,16.0104684 50.03125,17.2569444 L50.03125,32.65625 C50.0342644,35.5890132 52.4109868,37.9657356 55.34375,37.96875 L70.7430556,37.96875 C71.9895316,37.96875 73,36.9582816 73,35.7118056 L73,35.7118056 C73,34.4653296 71.9895316,33.4548611 70.7430556,33.4548611 L56.5451389,33.4548611 C55.4405694,33.4548611 54.5451389,32.5594306 54.5451389,31.4548611 Z M31.4548611,33.4548611 L17.2569444,33.4548611 C16.0104684,33.4548611 15,34.4653296 15,35.7118056 L15,35.7118056 C15,36.9582816 16.0104684,37.96875 17.2569444,37.96875 L32.65625,37.96875 C35.5890132,37.9657356 37.9657356,35.5890132 37.96875,32.65625 L37.96875,17.2569444 C37.96875,16.0104684 36.9582816,15 35.7118056,15 L35.7118056,15 C34.4653296,15 33.4548611,16.0104684 33.4548611,17.2569444 L33.4548611,31.4548611 C33.4548611,32.5594306 32.5594306,33.4548611 31.4548611,33.4548611 Z M15,53.2881944 L15,53.2881944 C15,54.5346704 16.0104684,55.5451389 17.2569444,55.5451389 L31.4548611,55.5451389 C32.5594306,55.5451389 33.4548611,56.4405694 33.4548611,57.5451389 L33.4548611,71.7430556 C33.4548611,72.9895316 34.4653296,74 35.7118056,74 L35.7118056,74 C36.9582816,74 37.96875,72.9895316 37.96875,71.7430556 L37.96875,56.34375 C37.9657356,53.4109868 35.5890132,51.0342644 32.65625,51.03125 L17.2569444,51.03125 C16.0104684,51.03125 15,52.0417184 15,53.2881944 Z M52.2881944,74 L52.2881944,74 C53.5346704,74 54.5451389,72.9895316 54.5451389,71.7430556 L54.5451389,57.5451389 C54.5451389,56.4405694 55.4405694,55.5451389 56.5451389,55.5451389 L70.7430556,55.5451389 C71.9895316,55.5451389 73,54.5346704 73,53.2881944 L73,53.2881944 C73,52.0417184 71.9895316,51.03125 70.7430556,51.03125 L55.34375,51.03125 C52.4109868,51.0342644 50.0342644,53.4109868 50.03125,56.34375 L50.03125,71.7430556 C50.03125,72.9895316 51.0417184,74 52.2881944,74 Z" id="形状" fill="#FFFFFF" fill-rule="nonzero"></path>
            <path d="M17.7261704,17.6008018 L25.3797915,24.9766445 L17.7261704,17.6008018 Z M70.935347,17.6008018 L63.281726,24.9766445 L70.935347,17.6008018 Z M17.7261704,69.9496045 L25.3797915,62.5737618 L17.7261704,69.9496045 Z M70.935347,69.9496045 L63.281726,62.5737618 L70.935347,69.9496045 Z" id="合并形状" stroke="#FFFFFF" stroke-width="4" stroke-linecap="round" stroke-linejoin="round" fill-rule="nonzero"></path>
        </g>
    </g>
</svg>