<?xml version="1.0" encoding="UTF-8"?>
<svg width="51px" height="49px" viewBox="0 0 51 49" version="1.1" xmlns="http://www.w3.org/2000/svg" xmlns:xlink="http://www.w3.org/1999/xlink">
    <!-- Generator: Sketch 52.4 (67378) - http://www.bohemiancoding.com/sketch -->
    <title>Scissors</title>
    <desc>Created with Sketch.</desc>
    <g id="Page-1" stroke="none" stroke-width="1" fill="none" fill-rule="evenodd">
        <g id="Scissors" transform="translate(-19.000000, -19.000000)" fill-rule="nonzero">
            <rect id="矩形" x="0" y="0" width="88" height="88"></rect>
            <path d="M67.2316301,51.6693819 C64.1158595,48.5212035 59.2425996,47.9655948 55.5035967,50.3322489 L47.5308729,42.2769489 L66.0933734,23.519427 C66.9192297,22.6848941 66.9192413,21.3410314 66.0933994,20.5064842 L66.0933994,20.5064842 C65.278598,19.6830939 63.9505812,19.6761313 63.1271909,20.4909327 C63.1220166,20.496053 63.116869,20.5012002 63.1117483,20.5063741 L44.5470623,39.2639804 L25.9867473,20.5065429 C25.1720705,19.6832138 23.8442044,19.6761996 23.0208752,20.4908764 C23.0156451,20.4960516 23.0104422,20.5012543 23.0052668,20.5064842 L23.0052668,20.5064842 C22.1794249,21.3410314 22.1794365,22.6848941 23.0052928,23.519427 L41.5677933,42.2769489 L33.5962049,50.3322489 C29.377684,47.6665742 23.826464,48.7182978 20.8646089,52.7443527 C17.9027538,56.7704077 18.5319584,62.4091886 22.3076752,65.6767676 C26.083392,68.9443467 31.7286795,68.7356337 35.2550128,65.1980892 C38.4341109,61.9861189 38.8746431,57.0390117 36.5777447,53.3452173 L44.5470623,45.2899173 L52.5203538,53.3452173 C50.2240231,57.0390117 50.665123,61.9861189 53.8436533,65.1986594 C55.6138893,66.9915249 58.0237072,68 60.5376417,68 C63.0515762,68 65.4613941,66.9915249 67.2316301,65.1986594 C70.92279,61.4683718 70.92279,55.3996695 67.2316301,51.6693819 Z M32.3915351,62.3916562 C31.361999,63.4211291 29.9619348,64 28.5015754,64 C27.0412159,64 25.6411517,63.4211291 24.6116157,62.3916562 C22.4627948,60.2379677 22.4627948,56.7650082 24.6116157,54.6113197 C25.6402078,53.5800884 27.0406255,53 28.5015754,53 C29.9625252,53 31.362943,53.5800884 32.3915351,54.6113197 C34.536155,56.766726 34.536155,60.2362499 32.3915351,62.3916562 Z M64.3909177,62.3917072 C63.3610729,63.421151 61.9606291,64 60.4998791,64 C59.039129,64 57.6386852,63.421151 56.6088404,62.3917072 C54.4637199,60.2362345 54.4637199,56.7667409 56.6088404,54.6112682 C57.6377412,53.5800663 59.0385386,53 60.4998791,53 C61.9612195,53 63.362017,53.5800663 64.3909177,54.6112682 C66.5363608,56.7666092 66.5363608,60.2363662 64.3909177,62.3917072 Z" fill="#FFFFFF"></path>
        </g>
    </g>
</svg>