<?xml version="1.0" encoding="UTF-8"?>
<svg width="89px" height="89px" viewBox="0 0 89 89" version="1.1" xmlns="http://www.w3.org/2000/svg" xmlns:xlink="http://www.w3.org/1999/xlink">
    <!-- Generator: Sketch 52.4 (67378) - http://www.bohemiancoding.com/sketch -->
    <title>Sort</title>
    <desc>Created with Sketch.</desc>
    <g id="Sort" stroke="none" stroke-width="1" fill="none" fill-rule="evenodd">
        <g id="分组" transform="translate(1.000000, 1.000000)" fill-rule="nonzero">
            <rect id="矩形" x="0" y="0" width="88" height="88"></rect>
            <path d="M33.6300267,31.54609 L33.6300267,60.1864062 C33.6300267,61.7406827 32.7773585,63.0006728 31.2230819,63.0006728 C29.6688054,63.0006728 28.8164329,61.7406827 28.8164329,60.1864062 L28.8164329,31.5430007 C28.8164329,30.9907159 28.3687177,30.5430007 27.8164329,30.5430007 C27.5495152,30.5430007 27.2936747,30.6497096 27.1058641,30.839373 L19.4007379,38.6205095 C18.8547543,39.1735428 17.9638251,39.1792578 17.4107918,38.6332743 C17.40668,38.6292149 18.5136296,39.7361666 18.5095682,39.7320569 L16.4062827,37.5905906 C15.8622961,37.0401423 15.8649128,36.1537224 16.4121398,35.6064954 L29.9053593,21.2622163 C31.0820128,20.0855628 31.5592572,20.0855628 32.7359107,21.2622163 L46.034024,35.6061996 C46.5815538,36.1537294 46.5838263,37.0407472 46.0391092,37.5910753 L45.0407862,38.6225708 C44.4940894,39.174899 43.6031536,39.1794641 43.0508254,38.6327673 C43.0468634,38.6288457 43.0429248,38.6249007 43.0390097,38.6209323 L35.3407816,30.8426503 C34.9522825,30.4501112 34.319126,30.4468361 33.9265869,30.8353352 C33.7368087,31.0231602 33.6300267,31.2790807 33.6300267,31.54609 Z M59.1838628,61.8336361 C59.1838628,62.1006455 59.2906448,62.3565659 59.480423,62.544391 C59.8729621,62.93289 60.5061186,62.9296149 60.8946177,62.5370759 L68.5928458,54.7587938 C68.5967609,54.7548255 68.6006995,54.7508804 68.6046615,54.7469588 C69.1569897,54.200262 70.0479255,54.2048271 70.5946224,54.7571553 L71.5929454,55.7886508 C72.1376625,56.3389789 72.13539,57.2259967 71.5878602,57.7735265 L58.2897468,72.1175099 C57.1130933,73.2941634 56.6358489,73.2941634 55.4591954,72.1175099 L41.965976,57.7732307 C41.418749,57.2260037 41.4161322,56.3395838 41.9601189,55.7891355 L44.0634043,53.6476692 C44.0674658,53.6435595 42.9605162,54.7505112 42.9646279,54.7464518 C43.5176613,54.2004683 44.4085905,54.2061833 44.954574,54.7592166 L52.6597002,62.5403531 C52.8475109,62.7300165 53.1033513,62.8367255 53.3702691,62.8367255 C53.9225538,62.8367255 54.3702691,62.3890102 54.3702691,61.8367255 L54.3702691,33.1933199 C54.3702691,31.6390434 55.2226415,30.3790533 56.7769181,30.3790533 C58.3311946,30.3790533 59.1838628,31.6390434 59.1838628,33.1933199 L59.1838628,61.8336361 Z" id="合并形状" fill="#FFFFFF"></path>
        </g>
    </g>
</svg>