<?xml version="1.0" encoding="UTF-8"?>
<svg width="89px" height="89px" viewBox="0 0 89 89" version="1.1" xmlns="http://www.w3.org/2000/svg" xmlns:xlink="http://www.w3.org/1999/xlink">
    <!-- Generator: Sketch 52.4 (67378) - http://www.bohemiancoding.com/sketch -->
    <title>Download</title>
    <desc>Created with Sketch.</desc>
    <g id="Download" stroke="none" stroke-width="1" fill="none" fill-rule="evenodd">
        <g id="download" transform="translate(22.000000, 17.000000)" fill="#FFFFFF" fill-rule="nonzero" stroke="#FFFFFF" stroke-width="2">
            <path d="M20.3305275,41.3608623 L0.417750282,23.4078629 C-0.145429182,22.9000827 -0.138282723,22.0831185 0.433739048,21.5831875 C1.00576082,21.0832028 1.92608295,21.0895467 2.48926247,21.5973269 L21.4602174,38.7012124 L21.4602174,1.29028313 C21.4602174,0.577670517 22.1109716,0 22.9137402,0 C23.7165087,0 24.3672629,0.577670517 24.3672629,1.29028313 L24.3672629,38.5035303 L43.0474528,21.6721095 C43.6107534,21.1644906 44.5311967,21.1584156 45.1029762,21.6585078 C45.6748163,22.1586 45.6817205,22.9755643 45.1182988,23.4831832 L25.3181091,41.3236591 C24.6639633,41.9186409 23.7881553,42.2524479 22.8513599,42.2638454 C22.8349472,42.2640605 22.8185345,42.2641142 22.8021218,42.2641142 C21.8817391,42.2641142 21.013562,41.9512743 20.3525725,41.380324 C20.3451838,41.3739264 20.3377951,41.3674212 20.3305275,41.3608623 Z M44.098819,52.2636657 C44.8927507,52.2636657 45.5364015,52.9914348 45.5364015,53.8892086 C45.5364015,54.7869824 44.8928106,55.5147514 44.0988789,55.5147514 L1.43752255,55.5147514 C0.643590831,55.5147514 0,54.7869824 0,53.8892086 C0,52.9914348 0.643590831,52.2636657 1.43752255,52.2636657 L44.098819,52.2636657 Z" id="合并形状"></path>
        </g>
    </g>
</svg>