<?xml version="1.0" encoding="UTF-8"?>
<svg width="48px" height="58px" viewBox="0 0 48 58" version="1.1" xmlns="http://www.w3.org/2000/svg" xmlns:xlink="http://www.w3.org/1999/xlink">
    <!-- Generator: Sketch 52.4 (67378) - http://www.bohemiancoding.com/sketch -->
    <title>Download</title>
    <desc>Created with Sketch.</desc>
    <g id="Page-1" stroke="none" stroke-width="1" fill="none" fill-rule="evenodd">
        <g id="Download" transform="translate(-20.000000, -15.000000)" fill-rule="nonzero">
            <rect id="矩形-copy-46" x="0" y="0" width="88" height="88"></rect>
            <path d="M41.3305275,57.3608623 L21.4177503,39.4078629 C20.8545708,38.9000827 20.8617173,38.0831185 21.433739,37.5831875 C22.0057608,37.0832028 22.926083,37.0895467 23.4892625,37.5973269 L42.4602174,54.7012124 L42.4602174,17.2902831 C42.4602174,16.5776705 43.1109716,16 43.9137402,16 C44.7165087,16 45.3672629,16.5776705 45.3672629,17.2902831 L45.3672629,54.5035303 L64.0474528,37.6721095 C64.6107534,37.1644906 65.5311967,37.1584156 66.1029762,37.6585078 C66.6748163,38.1586 66.6817205,38.9755643 66.1182988,39.4831832 L46.3181091,57.3236591 C45.6639633,57.9186409 44.7881553,58.2524479 43.8513599,58.2638454 C43.8349472,58.2640605 43.8185345,58.2641142 43.8021218,58.2641142 C42.8817391,58.2641142 42.013562,57.9512743 41.3525725,57.380324 C41.3451838,57.3739264 41.3377951,57.3674212 41.3305275,57.3608623 Z M65.098819,68.2636657 C65.8927507,68.2636657 66.5364015,68.9914348 66.5364015,69.8892086 C66.5364015,70.7869824 65.8928106,71.5147514 65.0988789,71.5147514 L22.4375226,71.5147514 C21.6435908,71.5147514 21,70.7869824 21,69.8892086 C21,68.9914348 21.6435908,68.2636657 22.4375226,68.2636657 L65.098819,68.2636657 Z" id="合并形状" stroke="#FFFFFF" stroke-width="2" fill="#FFFFFF"></path>
        </g>
    </g>
</svg>