<?xml version="1.0" encoding="UTF-8"?>
<svg width="89px" height="89px" viewBox="0 0 89 89" version="1.1" xmlns="http://www.w3.org/2000/svg" xmlns:xlink="http://www.w3.org/1999/xlink">
    <!-- Generator: Sketch 52.4 (67378) - http://www.bohemiancoding.com/sketch -->
    <title>File</title>
    <desc>Created with Sketch.</desc>
    <g id="File" stroke="none" stroke-width="1" fill="none" fill-rule="evenodd">
        <g id="dakai" transform="translate(14.000000, 17.000000)" fill="#FFFFFF" fill-rule="nonzero" stroke="#FFFFFF">
            <path d="M14.5302485,4.30769231 L4.31380225,4.30769231 L4.43668417,43.3526154 C4.43668417,44.5421518 3.47148924,45.5064615 2.28086096,45.5064615 C1.09023268,45.5064615 0.125037746,44.5421518 0.125037746,43.3526154 L0,4.30769231 C-4.78688914e-16,1.92861954 1.93038986,0 4.31164643,0 L16.2980235,0 L22.8517261,6.46153846 L56.4200493,6.46153846 C57.6106776,6.46153846 58.5758725,7.42584823 58.5758725,8.61538462 C58.5758725,9.804921 57.6106776,10.7692308 56.4200493,10.7692308 L21.0861068,10.7692308 L14.5324043,4.30769231 L14.5302485,4.30769231 Z M4.53800786,43.0510769 C4.31106346,44.1990433 3.20825651,44.9559838 2.05429886,44.7558358 C0.900341222,44.5556878 0.117424057,43.4716782 0.291036134,42.3144615 L3.97102636,21.1701538 C4.56387774,17.7649231 7.72215875,15.0769231 11.1563851,15.0769231 L56.2174019,15.0769231 C59.9469761,15.0769231 62.544743,18.2215385 61.9023077,21.9067692 L57.0301473,49.9067692 C56.4329842,53.312 53.2768591,56 49.8426327,56 L6.72616842,56 C5.53554014,56 4.57034521,55.0356902 4.57034521,53.8461538 C4.57034521,52.6566175 5.53554014,51.6923077 6.72616842,51.6923077 L49.8426327,51.6923077 C51.1706198,51.6923077 52.5438792,50.5227692 52.7810197,49.1701538 L57.6531802,21.1701538 C57.8407368,20.0996923 57.2500412,19.3846154 56.2174019,19.3846154 L11.1563851,19.3846154 C9.83055385,19.3846154 8.45513864,20.5541538 8.22015391,21.9067692 L4.53800786,43.0510769 Z" id="形状"></path>
        </g>
    </g>
</svg>