<?xml version="1.0" encoding="UTF-8"?>
<svg width="64px" height="58px" viewBox="0 0 64 58" version="1.1" xmlns="http://www.w3.org/2000/svg" xmlns:xlink="http://www.w3.org/1999/xlink">
    <!-- Generator: Sketch 52.4 (67378) - http://www.bohemiancoding.com/sketch -->
    <title>File</title>
    <desc>Created with Sketch.</desc>
    <g id="Page-1" stroke="none" stroke-width="1" fill="none" fill-rule="evenodd">
        <g id="File" transform="translate(-12.000000, -15.000000)" fill-rule="nonzero">
            <rect id="矩形" x="0" y="0" width="88" height="88"></rect>
            <path d="M27.5302485,20.3076923 L17.3138022,20.3076923 L17.4366842,59.3526154 C17.4366842,60.5421518 16.4714892,61.5064615 15.280861,61.5064615 C14.0902327,61.5064615 13.1250377,60.5421518 13.1250377,59.3526154 L13,20.3076923 C13,17.9286195 14.9303899,16 17.3116464,16 L29.2980235,16 L35.8517261,22.4615385 L69.4200493,22.4615385 C70.6106776,22.4615385 71.5758725,23.4258482 71.5758725,24.6153846 C71.5758725,25.804921 70.6106776,26.7692308 69.4200493,26.7692308 L34.0861068,26.7692308 L27.5324043,20.3076923 L27.5302485,20.3076923 Z M17.5380079,59.0510769 C17.3110635,60.1990433 16.2082565,60.9559838 15.0542989,60.7558358 C13.9003412,60.5556878 13.1174241,59.4716782 13.2910361,58.3144615 L16.9710264,37.1701538 C17.5638777,33.7649231 20.7221587,31.0769231 24.1563851,31.0769231 L69.2174019,31.0769231 C72.9469761,31.0769231 75.544743,34.2215385 74.9023077,37.9067692 L70.0301473,65.9067692 C69.4329842,69.312 66.2768591,72 62.8426327,72 L19.7261684,72 C18.5355401,72 17.5703452,71.0356902 17.5703452,69.8461538 C17.5703452,68.6566175 18.5355401,67.6923077 19.7261684,67.6923077 L62.8426327,67.6923077 C64.1706198,67.6923077 65.5438792,66.5227692 65.7810197,65.1701538 L70.6531802,37.1701538 C70.8407368,36.0996923 70.2500412,35.3846154 69.2174019,35.3846154 L24.1563851,35.3846154 C22.8305538,35.3846154 21.4551386,36.5541538 21.2201539,37.9067692 L17.5380079,59.0510769 Z" id="形状" stroke="#FFFFFF" fill="#FFFFFF"></path>
        </g>
    </g>
</svg>